<svg width="99" height="99" viewBox="0 0 99 99" fill="none" xmlns="http://www.w3.org/2000/svg">
<rect x="0.254883" y="0.453125" width="98.1797" height="98.1797" fill="#053B3F"/>
<path d="M12.8103 67.2432V31.9813H22.1799L31.8517 51.0227L41.5235 31.9813H50.8931V67.2432H43.9918V41.3005L31.7509 64.7245L19.5604 41.1998V67.2432H12.8103ZM57.2319 67.2432V31.9813H73.805C76.1893 31.9813 78.2715 32.3843 80.0514 33.1903C81.8312 33.9963 83.2249 35.1381 84.2324 36.6158C85.2399 38.0598 85.7436 39.7389 85.7436 41.6532C85.7436 43.198 85.3406 44.6252 84.5346 45.9349C83.7622 47.2111 82.7044 48.2522 81.3611 49.0581C83.0738 49.8641 84.4339 50.9556 85.4414 52.3325C86.4489 53.7093 86.9526 55.2709 86.9526 57.0172C86.9526 59.0322 86.4321 60.8121 85.391 62.3569C84.3835 63.9017 82.9395 65.1107 81.0588 65.9838C79.2118 66.8234 77.0625 67.2432 74.611 67.2432H57.2319ZM64.5361 46.3883H73.3516C74.93 46.3883 76.1725 46.0189 77.0793 45.2801C78.0196 44.5077 78.4898 43.4834 78.4898 42.2073C78.4898 40.9311 78.0196 39.9236 77.0793 39.1848C76.1725 38.4124 74.93 38.0262 73.3516 38.0262H64.5361V46.3883ZM64.5361 61.1983H74.0568C75.736 61.1983 77.0793 60.7953 78.0868 59.9893C79.0942 59.1497 79.598 58.0415 79.598 56.6646C79.598 55.2541 79.0942 54.1459 78.0868 53.3399C77.0793 52.5004 75.736 52.0806 74.0568 52.0806H64.5361V61.1983Z" fill="white"/>
</svg>
